<svg width="662" height="677" viewBox="0 0 662 677" fill="none" xmlns="http://www.w3.org/2000/svg">
<g filter="url(#filter0_dddddd_512_476)">
<rect x="80" width="502" height="497" rx="16" fill="white"/>
<path fill-rule="evenodd" clip-rule="evenodd" d="M477.002 46.7181C477.375 46.3269 478 46.3269 478.374 46.7181C478.724 47.0849 478.724 47.6623 478.374 48.029L473.625 53L478.374 57.971C478.724 58.3377 478.724 58.9152 478.374 59.2819C478 59.6731 477.375 59.6731 477.002 59.2819L471 53L477.002 46.7181Z" fill="#AFAFAF"/>
<path fill-rule="evenodd" clip-rule="evenodd" d="M526.998 46.7181C526.625 46.3269 526 46.3269 525.626 46.7181C525.276 47.0849 525.276 47.6623 525.626 48.029L530.375 53L525.626 57.971C525.276 58.3377 525.276 58.9152 525.626 59.2819C526 59.6731 526.625 59.6731 526.998 59.2819L533 53L526.998 46.7181Z" fill="black"/>
<g clip-path="url(#clip0_512_476)">
<path d="M132.402 114.818H134.659L137.682 122.196H137.801L140.824 114.818H143.081V125H141.311V118.005H141.216L138.402 124.97H137.08L134.266 117.99H134.172V125H132.402V114.818ZM148.341 125.149C147.595 125.149 146.949 124.985 146.402 124.657C145.855 124.329 145.431 123.87 145.129 123.28C144.831 122.69 144.682 122 144.682 121.212C144.682 120.423 144.831 119.732 145.129 119.138C145.431 118.545 145.855 118.085 146.402 117.756C146.949 117.428 147.595 117.264 148.341 117.264C149.086 117.264 149.733 117.428 150.28 117.756C150.826 118.085 151.249 118.545 151.547 119.138C151.849 119.732 152 120.423 152 121.212C152 122 151.849 122.69 151.547 123.28C151.249 123.87 150.826 124.329 150.28 124.657C149.733 124.985 149.086 125.149 148.341 125.149ZM148.351 123.707C148.755 123.707 149.093 123.596 149.365 123.374C149.637 123.149 149.839 122.847 149.971 122.469C150.107 122.092 150.175 121.671 150.175 121.207C150.175 120.739 150.107 120.317 149.971 119.939C149.839 119.558 149.637 119.254 149.365 119.029C149.093 118.804 148.755 118.691 148.351 118.691C147.936 118.691 147.592 118.804 147.316 119.029C147.045 119.254 146.841 119.558 146.705 119.939C146.572 120.317 146.506 120.739 146.506 121.207C146.506 121.671 146.572 122.092 146.705 122.469C146.841 122.847 147.045 123.149 147.316 123.374C147.592 123.596 147.936 123.707 148.351 123.707Z" fill="black"/>
<path d="M197.196 116.364V114.818H205.32V116.364H202.173V125H200.343V116.364H197.196ZM210.635 121.788V117.364H212.434V125H210.689V123.643H210.61C210.437 124.07 210.154 124.42 209.76 124.692C209.369 124.964 208.886 125.099 208.313 125.099C207.812 125.099 207.37 124.988 206.986 124.766C206.604 124.541 206.306 124.214 206.091 123.787C205.875 123.356 205.767 122.836 205.767 122.226V117.364H207.567V121.947C207.567 122.431 207.7 122.816 207.965 123.101C208.23 123.386 208.578 123.528 209.009 123.528C209.274 123.528 209.531 123.464 209.78 123.335C210.028 123.205 210.232 123.013 210.391 122.758C210.553 122.499 210.635 122.176 210.635 121.788Z" fill="black"/>
<path d="M260.339 125L257.466 114.818H259.449L261.284 122.3H261.378L263.337 114.818H265.142L267.106 122.305H267.195L269.03 114.818H271.013L268.14 125H266.32L264.282 117.856H264.202L262.159 125H260.339ZM274.814 125.149C274.049 125.149 273.387 124.99 272.831 124.672C272.277 124.35 271.851 123.896 271.553 123.31C271.255 122.72 271.105 122.025 271.105 121.227C271.105 120.441 271.255 119.752 271.553 119.158C271.854 118.562 272.275 118.098 272.816 117.766C273.356 117.432 273.991 117.264 274.72 117.264C275.19 117.264 275.634 117.34 276.052 117.493C276.473 117.642 276.844 117.874 277.166 118.189C277.491 118.504 277.746 118.905 277.931 119.392C278.117 119.876 278.21 120.453 278.21 121.122V121.674H271.951V120.461H276.485C276.481 120.116 276.407 119.81 276.261 119.541C276.115 119.269 275.911 119.056 275.649 118.9C275.391 118.744 275.089 118.666 274.745 118.666C274.377 118.666 274.054 118.756 273.775 118.935C273.497 119.11 273.28 119.342 273.124 119.631C272.971 119.916 272.893 120.229 272.89 120.57V121.629C272.89 122.073 272.971 122.455 273.134 122.773C273.296 123.088 273.523 123.33 273.815 123.499C274.107 123.664 274.448 123.747 274.839 123.747C275.101 123.747 275.338 123.711 275.55 123.638C275.762 123.562 275.946 123.451 276.102 123.305C276.258 123.159 276.375 122.978 276.455 122.763L278.135 122.952C278.029 123.396 277.827 123.784 277.529 124.115C277.234 124.443 276.856 124.698 276.395 124.881C275.934 125.06 275.407 125.149 274.814 125.149Z" fill="black"/>
<path d="M322.643 116.364V114.818H330.766V116.364H327.619V125H325.79V116.364H322.643ZM334.053 120.526V125H332.253V114.818H334.013V118.661H334.102C334.281 118.23 334.558 117.891 334.933 117.642C335.31 117.39 335.791 117.264 336.374 117.264C336.905 117.264 337.367 117.375 337.761 117.597C338.156 117.819 338.461 118.144 338.676 118.572C338.895 118.999 339.004 119.521 339.004 120.138V125H337.205V120.416C337.205 119.902 337.072 119.503 336.807 119.218C336.545 118.93 336.177 118.786 335.703 118.786C335.385 118.786 335.1 118.855 334.848 118.994C334.599 119.13 334.404 119.327 334.261 119.586C334.122 119.844 334.053 120.158 334.053 120.526Z" fill="black"/>
<path d="M388.182 125V114.818H394.705V116.364H390.026V119.129H394.257V120.675H390.026V125H388.182ZM396.196 125V117.364H397.941V118.636H398.021C398.16 118.196 398.399 117.856 398.737 117.617C399.078 117.375 399.468 117.254 399.905 117.254C400.004 117.254 400.115 117.259 400.238 117.269C400.364 117.276 400.468 117.287 400.551 117.304V118.96C400.475 118.933 400.354 118.91 400.188 118.89C400.026 118.867 399.869 118.855 399.716 118.855C399.388 118.855 399.093 118.926 398.831 119.069C398.573 119.208 398.369 119.402 398.22 119.651C398.07 119.899 397.996 120.186 397.996 120.511V125H396.196Z" fill="black"/>
<path d="M454.972 117.617C454.926 117.183 454.73 116.845 454.386 116.603C454.044 116.361 453.6 116.24 453.053 116.24C452.669 116.24 452.339 116.298 452.064 116.414C451.789 116.53 451.578 116.687 451.432 116.886C451.287 117.085 451.212 117.312 451.209 117.567C451.209 117.78 451.257 117.964 451.353 118.119C451.452 118.275 451.587 118.408 451.756 118.517C451.925 118.623 452.112 118.713 452.317 118.786C452.523 118.858 452.73 118.92 452.939 118.969L453.893 119.208C454.278 119.298 454.647 119.419 455.002 119.571C455.36 119.723 455.68 119.916 455.962 120.148C456.247 120.38 456.472 120.66 456.638 120.988C456.803 121.316 456.886 121.701 456.886 122.141C456.886 122.738 456.734 123.263 456.429 123.717C456.124 124.168 455.683 124.521 455.106 124.776C454.533 125.028 453.839 125.154 453.023 125.154C452.231 125.154 451.543 125.031 450.96 124.786C450.38 124.541 449.926 124.183 449.598 123.712C449.273 123.242 449.097 122.668 449.071 121.992H450.886C450.912 122.347 451.021 122.642 451.214 122.877C451.406 123.112 451.656 123.288 451.964 123.404C452.276 123.52 452.624 123.578 453.008 123.578C453.409 123.578 453.761 123.518 454.062 123.399C454.367 123.277 454.606 123.107 454.778 122.892C454.951 122.673 455.039 122.418 455.042 122.126C455.039 121.861 454.961 121.643 454.808 121.47C454.656 121.295 454.442 121.149 454.167 121.033C453.895 120.913 453.577 120.807 453.212 120.714L452.054 120.416C451.215 120.201 450.552 119.874 450.065 119.437C449.581 118.996 449.339 118.411 449.339 117.682C449.339 117.082 449.502 116.557 449.827 116.106C450.155 115.655 450.601 115.305 451.164 115.057C451.727 114.805 452.365 114.679 453.078 114.679C453.801 114.679 454.434 114.805 454.977 115.057C455.524 115.305 455.953 115.652 456.265 116.096C456.576 116.537 456.737 117.044 456.747 117.617H454.972ZM460.649 125.154C460.165 125.154 459.729 125.068 459.341 124.896C458.957 124.72 458.652 124.461 458.426 124.12C458.204 123.779 458.093 123.358 458.093 122.857C458.093 122.426 458.173 122.07 458.332 121.788C458.491 121.507 458.708 121.281 458.983 121.112C459.258 120.943 459.568 120.816 459.913 120.729C460.261 120.64 460.62 120.575 460.992 120.536C461.439 120.489 461.802 120.448 462.08 120.411C462.359 120.371 462.561 120.312 462.687 120.232C462.816 120.149 462.881 120.022 462.881 119.849V119.82C462.881 119.445 462.77 119.155 462.548 118.95C462.326 118.744 462.006 118.641 461.588 118.641C461.147 118.641 460.798 118.737 460.539 118.93C460.284 119.122 460.112 119.349 460.022 119.611L458.342 119.372C458.474 118.908 458.693 118.52 458.998 118.209C459.303 117.894 459.676 117.659 460.117 117.503C460.557 117.344 461.045 117.264 461.578 117.264C461.946 117.264 462.312 117.307 462.677 117.393C463.042 117.48 463.375 117.622 463.676 117.821C463.978 118.017 464.22 118.283 464.402 118.621C464.588 118.96 464.68 119.382 464.68 119.889V125H462.95V123.951H462.891C462.781 124.163 462.627 124.362 462.428 124.548C462.233 124.73 461.986 124.877 461.688 124.99C461.393 125.099 461.046 125.154 460.649 125.154ZM461.116 123.832C461.477 123.832 461.79 123.76 462.055 123.618C462.321 123.472 462.524 123.28 462.667 123.041C462.813 122.803 462.886 122.542 462.886 122.261V121.361C462.829 121.407 462.733 121.45 462.597 121.49C462.465 121.53 462.316 121.565 462.15 121.594C461.984 121.624 461.82 121.651 461.658 121.674C461.495 121.697 461.354 121.717 461.235 121.734C460.967 121.77 460.726 121.83 460.514 121.913C460.302 121.996 460.135 122.112 460.012 122.261C459.89 122.406 459.828 122.595 459.828 122.827C459.828 123.159 459.949 123.409 460.191 123.578C460.433 123.747 460.741 123.832 461.116 123.832Z" fill="black"/>
<path d="M517.733 117.617C517.687 117.183 517.491 116.845 517.146 116.603C516.805 116.361 516.361 116.24 515.814 116.24C515.429 116.24 515.1 116.298 514.825 116.414C514.549 116.53 514.339 116.687 514.193 116.886C514.047 117.085 513.973 117.312 513.969 117.567C513.969 117.78 514.018 117.964 514.114 118.119C514.213 118.275 514.347 118.408 514.516 118.517C514.685 118.623 514.873 118.713 515.078 118.786C515.284 118.858 515.491 118.92 515.7 118.969L516.654 119.208C517.039 119.298 517.408 119.419 517.763 119.571C518.121 119.723 518.441 119.916 518.722 120.148C519.007 120.38 519.233 120.66 519.398 120.988C519.564 121.316 519.647 121.701 519.647 122.141C519.647 122.738 519.495 123.263 519.19 123.717C518.885 124.168 518.444 124.521 517.867 124.776C517.294 125.028 516.599 125.154 515.784 125.154C514.992 125.154 514.304 125.031 513.721 124.786C513.141 124.541 512.687 124.183 512.359 123.712C512.034 123.242 511.858 122.668 511.832 121.992H513.646C513.673 122.347 513.782 122.642 513.974 122.877C514.167 123.112 514.417 123.288 514.725 123.404C515.037 123.52 515.385 123.578 515.769 123.578C516.17 123.578 516.522 123.518 516.823 123.399C517.128 123.277 517.367 123.107 517.539 122.892C517.711 122.673 517.799 122.418 517.803 122.126C517.799 121.861 517.721 121.643 517.569 121.47C517.416 121.295 517.203 121.149 516.928 121.033C516.656 120.913 516.338 120.807 515.973 120.714L514.815 120.416C513.976 120.201 513.313 119.874 512.826 119.437C512.342 118.996 512.1 118.411 512.1 117.682C512.1 117.082 512.263 116.557 512.587 116.106C512.915 115.655 513.361 115.305 513.925 115.057C514.488 114.805 515.126 114.679 515.839 114.679C516.561 114.679 517.194 114.805 517.738 115.057C518.285 115.305 518.714 115.652 519.026 116.096C519.337 116.537 519.498 117.044 519.508 117.617H517.733ZM526.079 121.788V117.364H527.879V125H526.134V123.643H526.054C525.882 124.07 525.598 124.42 525.204 124.692C524.813 124.964 524.331 125.099 523.757 125.099C523.257 125.099 522.814 124.988 522.43 124.766C522.049 124.541 521.75 124.214 521.535 123.787C521.32 123.356 521.212 122.836 521.212 122.226V117.364H523.012V121.947C523.012 122.431 523.144 122.816 523.409 123.101C523.674 123.386 524.022 123.528 524.453 123.528C524.718 123.528 524.975 123.464 525.224 123.335C525.472 123.205 525.676 123.013 525.835 122.758C525.998 122.499 526.079 122.176 526.079 121.788Z" fill="black"/>
<rect x="110.5" y="151.5" width="63" height="63" stroke="#D5D4DF"/>
<path d="M143.374 177.818V188H142.141V179.111H142.081L139.596 180.761V179.509L142.141 177.818H143.374Z" fill="black"/>
<rect x="173.5" y="151.5" width="63" height="63" stroke="#D5D4DF"/>
<path d="M201.82 188V187.105L205.181 183.426C205.575 182.995 205.9 182.621 206.155 182.303C206.41 181.981 206.599 181.679 206.722 181.398C206.848 181.113 206.911 180.814 206.911 180.503C206.911 180.145 206.825 179.835 206.652 179.573C206.483 179.311 206.251 179.109 205.956 178.967C205.661 178.824 205.33 178.753 204.962 178.753C204.571 178.753 204.23 178.834 203.938 178.996C203.65 179.156 203.426 179.379 203.267 179.668C203.111 179.956 203.033 180.294 203.033 180.682H201.86C201.86 180.085 201.997 179.562 202.272 179.111C202.548 178.66 202.922 178.309 203.396 178.057C203.873 177.805 204.409 177.679 205.002 177.679C205.598 177.679 206.127 177.805 206.588 178.057C207.049 178.309 207.41 178.648 207.672 179.076C207.933 179.504 208.064 179.979 208.064 180.503C208.064 180.877 207.996 181.244 207.861 181.602C207.728 181.956 207.496 182.352 207.165 182.79C206.836 183.224 206.381 183.754 205.797 184.381L203.51 186.827V186.906H208.243V188H201.82Z" fill="black"/>
<rect x="236.5" y="151.5" width="63" height="63" stroke="#D5D4DF"/>
<path d="M268.042 188.139C267.385 188.139 266.8 188.027 266.287 187.801C265.776 187.576 265.37 187.263 265.069 186.862C264.77 186.457 264.608 185.988 264.581 185.455H265.834C265.861 185.783 265.973 186.066 266.172 186.305C266.371 186.54 266.631 186.722 266.953 186.852C267.274 186.981 267.631 187.045 268.022 187.045C268.459 187.045 268.847 186.969 269.185 186.817C269.523 186.664 269.788 186.452 269.981 186.18C270.173 185.909 270.269 185.594 270.269 185.236C270.269 184.861 270.176 184.531 269.991 184.246C269.805 183.958 269.533 183.733 269.175 183.57C268.817 183.408 268.38 183.327 267.863 183.327H267.047V182.233H267.863C268.267 182.233 268.622 182.16 268.927 182.014C269.235 181.868 269.475 181.663 269.647 181.398C269.823 181.133 269.911 180.821 269.911 180.463C269.911 180.118 269.835 179.818 269.682 179.563C269.53 179.308 269.314 179.109 269.036 178.967C268.761 178.824 268.436 178.753 268.062 178.753C267.71 178.753 267.379 178.817 267.067 178.947C266.759 179.073 266.507 179.257 266.312 179.499C266.116 179.737 266.01 180.026 265.993 180.364H264.8C264.82 179.83 264.981 179.363 265.282 178.962C265.584 178.557 265.978 178.242 266.466 178.017C266.956 177.792 267.495 177.679 268.081 177.679C268.711 177.679 269.251 177.807 269.702 178.062C270.153 178.314 270.499 178.647 270.741 179.061C270.983 179.475 271.104 179.923 271.104 180.403C271.104 180.977 270.953 181.466 270.652 181.87C270.353 182.274 269.947 182.554 269.434 182.71V182.79C270.077 182.896 270.579 183.169 270.94 183.61C271.301 184.048 271.482 184.589 271.482 185.236C271.482 185.789 271.331 186.286 271.03 186.727C270.731 187.165 270.324 187.509 269.807 187.761C269.29 188.013 268.701 188.139 268.042 188.139Z" fill="black"/>
<rect x="299.5" y="151.5" width="63" height="63" stroke="#D5D4DF"/>
<path d="M327.283 185.912V184.898L331.758 177.818H332.493V179.389H331.996L328.616 184.739V184.818H334.641V185.912H327.283ZM332.076 188V185.604V185.131V177.818H333.249V188H332.076Z" fill="black"/>
<rect x="362.5" y="151.5" width="63" height="63" stroke="#D5D4DF"/>
<path d="M393.962 188.139C393.379 188.139 392.853 188.023 392.386 187.791C391.919 187.559 391.544 187.241 391.263 186.837C390.981 186.432 390.827 185.972 390.8 185.455H391.993C392.04 185.915 392.249 186.296 392.62 186.598C392.994 186.896 393.442 187.045 393.962 187.045C394.38 187.045 394.751 186.948 395.076 186.752C395.404 186.557 395.661 186.288 395.846 185.947C396.035 185.602 396.13 185.213 396.13 184.778C396.13 184.334 396.032 183.938 395.836 183.59C395.644 183.239 395.379 182.962 395.041 182.76C394.703 182.558 394.317 182.455 393.883 182.452C393.571 182.448 393.251 182.496 392.923 182.596C392.595 182.692 392.325 182.816 392.113 182.969L390.959 182.83L391.576 177.818H396.866V178.912H392.61L392.252 181.915H392.312C392.52 181.749 392.782 181.612 393.097 181.502C393.412 181.393 393.74 181.338 394.081 181.338C394.705 181.338 395.26 181.487 395.747 181.786C396.237 182.08 396.622 182.485 396.9 182.999C397.182 183.512 397.323 184.099 397.323 184.759C397.323 185.408 397.177 185.988 396.885 186.499C396.597 187.006 396.199 187.407 395.692 187.702C395.185 187.993 394.608 188.139 393.962 188.139Z" fill="black"/>
<rect x="425.5" y="151.5" width="63" height="63" stroke="#D5D4DF"/>
<path d="M457.062 188.139C456.644 188.133 456.226 188.053 455.809 187.901C455.391 187.748 455.01 187.491 454.665 187.13C454.321 186.765 454.044 186.273 453.835 185.653C453.626 185.03 453.522 184.248 453.522 183.307C453.522 182.405 453.606 181.607 453.775 180.911C453.944 180.211 454.19 179.623 454.511 179.146C454.833 178.665 455.22 178.3 455.674 178.052C456.132 177.803 456.647 177.679 457.221 177.679C457.791 177.679 458.298 177.793 458.742 178.022C459.189 178.247 459.554 178.562 459.836 178.967C460.117 179.371 460.3 179.837 460.383 180.364H459.169C459.057 179.906 458.838 179.527 458.513 179.225C458.188 178.924 457.758 178.773 457.221 178.773C456.432 178.773 455.81 179.116 455.356 179.802C454.906 180.488 454.678 181.451 454.675 182.69H454.755C454.94 182.409 455.161 182.168 455.416 181.969C455.674 181.767 455.959 181.612 456.271 181.502C456.583 181.393 456.912 181.338 457.26 181.338C457.844 181.338 458.377 181.484 458.861 181.776C459.345 182.064 459.733 182.463 460.025 182.974C460.316 183.481 460.462 184.062 460.462 184.719C460.462 185.348 460.321 185.925 460.04 186.449C459.758 186.969 459.362 187.384 458.851 187.692C458.344 187.997 457.748 188.146 457.062 188.139ZM457.062 187.045C457.479 187.045 457.854 186.941 458.185 186.732C458.52 186.523 458.783 186.243 458.976 185.892C459.171 185.541 459.269 185.15 459.269 184.719C459.269 184.298 459.174 183.915 458.986 183.57C458.8 183.222 458.543 182.946 458.215 182.74C457.89 182.535 457.519 182.432 457.101 182.432C456.786 182.432 456.493 182.495 456.221 182.621C455.95 182.743 455.711 182.912 455.505 183.128C455.303 183.343 455.144 183.59 455.028 183.869C454.912 184.144 454.854 184.434 454.854 184.739C454.854 185.143 454.949 185.521 455.138 185.872C455.33 186.223 455.592 186.507 455.923 186.722C456.258 186.938 456.637 187.045 457.062 187.045Z" fill="black"/>
<rect x="488.5" y="151.5" width="63" height="63" stroke="#D5D4DF"/>
<path d="M517.377 188L521.931 178.991V178.912H516.681V177.818H523.204V178.972L518.669 188H517.377Z" fill="black"/>
<rect x="110.5" y="214.5" width="63" height="63" stroke="#D5D4DF"/>
<path d="M142.002 251.139C141.319 251.139 140.716 251.018 140.192 250.776C139.672 250.531 139.266 250.195 138.974 249.767C138.682 249.336 138.538 248.846 138.542 248.295C138.538 247.865 138.623 247.467 138.795 247.102C138.968 246.734 139.203 246.428 139.501 246.183C139.803 245.934 140.139 245.777 140.51 245.71V245.651C140.023 245.525 139.635 245.251 139.347 244.83C139.059 244.406 138.916 243.924 138.919 243.384C138.916 242.866 139.047 242.404 139.312 241.996C139.577 241.589 139.942 241.267 140.406 241.032C140.873 240.797 141.405 240.679 142.002 240.679C142.592 240.679 143.119 240.797 143.583 241.032C144.047 241.267 144.411 241.589 144.677 241.996C144.945 242.404 145.081 242.866 145.084 243.384C145.081 243.924 144.933 244.406 144.642 244.83C144.353 245.251 143.971 245.525 143.493 245.651V245.71C143.861 245.777 144.193 245.934 144.488 246.183C144.783 246.428 145.018 246.734 145.194 247.102C145.369 247.467 145.459 247.865 145.462 248.295C145.459 248.846 145.31 249.336 145.015 249.767C144.723 250.195 144.317 250.531 143.797 250.776C143.28 251.018 142.681 251.139 142.002 251.139ZM142.002 250.045C142.463 250.045 142.86 249.971 143.195 249.822C143.53 249.673 143.788 249.462 143.971 249.19C144.153 248.919 144.246 248.6 144.249 248.236C144.246 247.851 144.146 247.512 143.951 247.217C143.755 246.922 143.488 246.69 143.15 246.521C142.816 246.352 142.433 246.267 142.002 246.267C141.568 246.267 141.18 246.352 140.839 246.521C140.5 246.69 140.234 246.922 140.038 247.217C139.846 247.512 139.751 247.851 139.755 248.236C139.751 248.6 139.839 248.919 140.018 249.19C140.2 249.462 140.461 249.673 140.799 249.822C141.137 249.971 141.538 250.045 142.002 250.045ZM142.002 245.213C142.366 245.213 142.69 245.14 142.971 244.994C143.256 244.848 143.48 244.645 143.642 244.383C143.805 244.121 143.888 243.814 143.891 243.463C143.888 243.118 143.807 242.818 143.647 242.563C143.488 242.305 143.268 242.106 142.986 241.967C142.705 241.824 142.376 241.753 142.002 241.753C141.621 241.753 141.288 241.824 141.003 241.967C140.718 242.106 140.497 242.305 140.341 242.563C140.186 242.818 140.109 243.118 140.113 243.463C140.109 243.814 140.187 244.121 140.346 244.383C140.509 244.645 140.732 244.848 141.017 244.994C141.303 245.14 141.631 245.213 142.002 245.213Z" fill="black"/>
<rect x="173.5" y="214.5" width="63" height="63" stroke="#D5D4DF"/>
<path d="M204.922 240.679C205.34 240.682 205.758 240.762 206.175 240.918C206.593 241.073 206.974 241.332 207.319 241.693C207.663 242.051 207.94 242.54 208.149 243.16C208.358 243.78 208.462 244.557 208.462 245.491C208.462 246.396 208.376 247.2 208.204 247.903C208.035 248.602 207.789 249.192 207.468 249.673C207.15 250.153 206.762 250.518 206.304 250.766C205.85 251.015 205.337 251.139 204.763 251.139C204.193 251.139 203.684 251.027 203.237 250.801C202.793 250.572 202.428 250.256 202.143 249.852C201.861 249.444 201.681 248.972 201.601 248.435H202.814C202.924 248.902 203.141 249.288 203.466 249.593C203.794 249.895 204.226 250.045 204.763 250.045C205.549 250.045 206.169 249.702 206.623 249.016C207.08 248.33 207.309 247.361 207.309 246.108H207.229C207.044 246.386 206.823 246.627 206.568 246.829C206.313 247.031 206.029 247.187 205.718 247.296C205.406 247.406 205.075 247.46 204.723 247.46C204.14 247.46 203.605 247.316 203.118 247.028C202.634 246.736 202.246 246.337 201.954 245.83C201.666 245.319 201.522 244.736 201.522 244.08C201.522 243.456 201.661 242.886 201.939 242.369C202.221 241.849 202.616 241.435 203.123 241.126C203.633 240.818 204.233 240.669 204.922 240.679ZM204.922 241.773C204.505 241.773 204.129 241.877 203.794 242.086C203.462 242.291 203.199 242.57 203.003 242.921C202.811 243.269 202.715 243.655 202.715 244.08C202.715 244.504 202.808 244.89 202.993 245.238C203.182 245.583 203.439 245.858 203.764 246.063C204.092 246.265 204.465 246.366 204.883 246.366C205.197 246.366 205.491 246.305 205.763 246.183C206.034 246.057 206.271 245.886 206.473 245.67C206.679 245.452 206.84 245.205 206.956 244.93C207.072 244.651 207.13 244.361 207.13 244.06C207.13 243.662 207.034 243.289 206.841 242.941C206.652 242.593 206.391 242.311 206.056 242.096C205.724 241.88 205.347 241.773 204.922 241.773Z" fill="black"/>
<rect x="236.5" y="214.5" width="63" height="63" stroke="#D5D4DF"/>
<path d="M264.842 240.818V251H263.609V242.111H263.549L261.063 243.761V242.509L263.609 240.818H264.842ZM272.534 251.139C271.785 251.139 271.147 250.935 270.62 250.528C270.093 250.117 269.69 249.522 269.412 248.743C269.134 247.961 268.994 247.016 268.994 245.909C268.994 244.809 269.134 243.869 269.412 243.09C269.694 242.308 270.098 241.711 270.625 241.3C271.155 240.886 271.792 240.679 272.534 240.679C273.277 240.679 273.911 240.886 274.438 241.3C274.969 241.711 275.373 242.308 275.651 243.09C275.933 243.869 276.074 244.809 276.074 245.909C276.074 247.016 275.935 247.961 275.656 248.743C275.378 249.522 274.975 250.117 274.448 250.528C273.921 250.935 273.283 251.139 272.534 251.139ZM272.534 250.045C273.277 250.045 273.853 249.687 274.264 248.972C274.675 248.256 274.881 247.235 274.881 245.909C274.881 245.027 274.786 244.277 274.597 243.657C274.412 243.037 274.143 242.565 273.792 242.24C273.444 241.915 273.025 241.753 272.534 241.753C271.798 241.753 271.223 242.116 270.809 242.842C270.395 243.564 270.188 244.587 270.188 245.909C270.188 246.791 270.28 247.54 270.466 248.156C270.652 248.773 270.918 249.242 271.266 249.563C271.618 249.885 272.04 250.045 272.534 250.045Z" fill="black"/>
<rect x="299.5" y="214.5" width="63" height="63" stroke="#D5D4DF"/>
<path d="M327.842 240.818V251H326.609V242.111H326.549L324.063 243.761V242.509L326.609 240.818H327.842ZM336.906 240.818V251H335.673V242.111H335.614L333.128 243.761V242.509L335.673 240.818H336.906Z" fill="black"/>
<rect x="362.5" y="214.5" width="63" height="63" stroke="#D5D4DF"/>
<path d="M390.842 240.818V251H389.609V242.111H389.549L387.063 243.761V242.509L389.609 240.818H390.842ZM395.352 251V250.105L398.713 246.426C399.107 245.995 399.432 245.621 399.688 245.303C399.943 244.981 400.132 244.679 400.254 244.398C400.38 244.113 400.443 243.814 400.443 243.503C400.443 243.145 400.357 242.835 400.185 242.573C400.016 242.311 399.784 242.109 399.489 241.967C399.194 241.824 398.862 241.753 398.494 241.753C398.103 241.753 397.762 241.834 397.47 241.996C397.182 242.156 396.958 242.379 396.799 242.668C396.643 242.956 396.565 243.294 396.565 243.682H395.392C395.392 243.085 395.53 242.562 395.805 242.111C396.08 241.66 396.454 241.309 396.928 241.057C397.406 240.805 397.941 240.679 398.534 240.679C399.131 240.679 399.659 240.805 400.12 241.057C400.581 241.309 400.942 241.648 401.204 242.076C401.466 242.504 401.597 242.979 401.597 243.503C401.597 243.877 401.529 244.244 401.393 244.602C401.26 244.956 401.028 245.352 400.697 245.79C400.369 246.224 399.913 246.754 399.33 247.381L397.043 249.827V249.906H401.776V251H395.352Z" fill="black"/>
<rect x="425.5" y="214.5" width="63" height="63" stroke="#D5D4DF"/>
<path d="M453.842 240.818V251H452.609V242.111H452.549L450.063 243.761V242.509L452.609 240.818H453.842ZM461.574 251.139C460.918 251.139 460.333 251.027 459.819 250.801C459.308 250.576 458.902 250.263 458.601 249.862C458.303 249.457 458.14 248.988 458.114 248.455H459.366C459.393 248.783 459.506 249.066 459.705 249.305C459.903 249.54 460.164 249.722 460.485 249.852C460.807 249.981 461.163 250.045 461.554 250.045C461.991 250.045 462.379 249.969 462.717 249.817C463.055 249.664 463.321 249.452 463.513 249.18C463.705 248.909 463.801 248.594 463.801 248.236C463.801 247.861 463.708 247.531 463.523 247.246C463.337 246.958 463.065 246.733 462.707 246.57C462.349 246.408 461.912 246.327 461.395 246.327H460.58V245.233H461.395C461.799 245.233 462.154 245.16 462.459 245.014C462.767 244.868 463.007 244.663 463.18 244.398C463.355 244.133 463.443 243.821 463.443 243.463C463.443 243.118 463.367 242.818 463.214 242.563C463.062 242.308 462.847 242.109 462.568 241.967C462.293 241.824 461.968 241.753 461.594 241.753C461.242 241.753 460.911 241.817 460.599 241.947C460.291 242.073 460.039 242.257 459.844 242.499C459.648 242.737 459.542 243.026 459.526 243.364H458.332C458.352 242.83 458.513 242.363 458.815 241.962C459.116 241.557 459.511 241.242 459.998 241.017C460.488 240.792 461.027 240.679 461.614 240.679C462.243 240.679 462.784 240.807 463.234 241.062C463.685 241.314 464.031 241.647 464.273 242.061C464.515 242.475 464.636 242.923 464.636 243.403C464.636 243.977 464.486 244.466 464.184 244.87C463.886 245.274 463.48 245.554 462.966 245.71V245.79C463.609 245.896 464.111 246.169 464.472 246.61C464.834 247.048 465.014 247.589 465.014 248.236C465.014 248.789 464.863 249.286 464.562 249.727C464.263 250.165 463.856 250.509 463.339 250.761C462.822 251.013 462.233 251.139 461.574 251.139Z" fill="black"/>
<rect x="488.5" y="214.5" width="63" height="63" stroke="#D5D4DF"/>
<path d="M516.842 240.818V251H515.609V242.111H515.549L513.063 243.761V242.509L515.609 240.818H516.842ZM520.815 248.912V247.898L525.29 240.818H526.026V242.389H525.528L522.148 247.739V247.818H528.173V248.912H520.815ZM525.608 251V248.604V248.131V240.818H526.781V251H525.608Z" fill="black"/>
<rect x="110.5" y="277.5" width="63" height="63" stroke="#D5D4DF"/>
<path d="M138.842 303.818V314H137.609V305.111H137.549L135.063 306.761V305.509L137.609 303.818H138.842ZM146.494 314.139C145.911 314.139 145.386 314.023 144.918 313.791C144.451 313.559 144.076 313.241 143.795 312.837C143.513 312.432 143.359 311.972 143.332 311.455H144.526C144.572 311.915 144.781 312.296 145.152 312.598C145.527 312.896 145.974 313.045 146.494 313.045C146.912 313.045 147.283 312.948 147.608 312.752C147.936 312.557 148.193 312.288 148.379 311.947C148.567 311.602 148.662 311.213 148.662 310.778C148.662 310.334 148.564 309.938 148.369 309.59C148.176 309.239 147.911 308.962 147.573 308.76C147.235 308.558 146.849 308.455 146.415 308.452C146.103 308.448 145.783 308.496 145.455 308.596C145.127 308.692 144.857 308.816 144.645 308.969L143.491 308.83L144.108 303.818H149.398V304.912H145.142L144.784 307.915H144.844C145.053 307.749 145.314 307.612 145.629 307.502C145.944 307.393 146.272 307.338 146.614 307.338C147.237 307.338 147.792 307.487 148.279 307.786C148.77 308.08 149.154 308.485 149.433 308.999C149.714 309.512 149.855 310.099 149.855 310.759C149.855 311.408 149.709 311.988 149.418 312.499C149.129 313.006 148.732 313.407 148.224 313.702C147.717 313.993 147.141 314.139 146.494 314.139Z" fill="black"/>
<rect x="173.5" y="277.5" width="63" height="63" stroke="#D5D4DF"/>
<path d="M201.842 303.818V314H200.609V305.111H200.549L198.063 306.761V305.509L200.609 303.818H201.842ZM209.594 314.139C209.176 314.133 208.759 314.053 208.341 313.901C207.923 313.748 207.542 313.491 207.197 313.13C206.853 312.765 206.576 312.273 206.367 311.653C206.158 311.03 206.054 310.248 206.054 309.307C206.054 308.405 206.138 307.607 206.308 306.911C206.477 306.211 206.722 305.623 207.043 305.146C207.365 304.665 207.753 304.3 208.207 304.052C208.664 303.803 209.179 303.679 209.753 303.679C210.323 303.679 210.83 303.793 211.274 304.022C211.722 304.247 212.086 304.562 212.368 304.967C212.65 305.371 212.832 305.837 212.915 306.364H211.702C211.589 305.906 211.37 305.527 211.045 305.225C210.721 304.924 210.29 304.773 209.753 304.773C208.964 304.773 208.343 305.116 207.888 305.802C207.438 306.488 207.211 307.451 207.207 308.69H207.287C207.473 308.409 207.693 308.168 207.948 307.969C208.207 307.767 208.492 307.612 208.803 307.502C209.115 307.393 209.445 307.338 209.793 307.338C210.376 307.338 210.91 307.484 211.393 307.776C211.877 308.064 212.265 308.463 212.557 308.974C212.848 309.481 212.994 310.062 212.994 310.719C212.994 311.348 212.853 311.925 212.572 312.449C212.29 312.969 211.894 313.384 211.384 313.692C210.876 313.997 210.28 314.146 209.594 314.139ZM209.594 313.045C210.011 313.045 210.386 312.941 210.717 312.732C211.052 312.523 211.316 312.243 211.508 311.892C211.703 311.541 211.801 311.15 211.801 310.719C211.801 310.298 211.707 309.915 211.518 309.57C211.332 309.222 211.075 308.946 210.747 308.74C210.422 308.535 210.051 308.432 209.634 308.432C209.319 308.432 209.025 308.495 208.754 308.621C208.482 308.743 208.243 308.912 208.038 309.128C207.835 309.343 207.676 309.59 207.56 309.869C207.444 310.144 207.386 310.434 207.386 310.739C207.386 311.143 207.481 311.521 207.67 311.872C207.862 312.223 208.124 312.507 208.455 312.722C208.79 312.938 209.17 313.045 209.594 313.045Z" fill="black"/>
<rect x="236.5" y="277.5" width="63" height="63" stroke="#D5D4DF"/>
<path d="M264.842 303.818V314H263.609V305.111H263.549L261.063 306.761V305.509L263.609 303.818H264.842ZM269.909 314L274.463 304.991V304.912H269.213V303.818H275.736V304.972L271.202 314H269.909Z" fill="black"/>
<rect x="299.5" y="277.5" width="63" height="63" fill="white"/>
<rect x="299.5" y="277.5" width="63" height="63" stroke="#D5D4DF"/>
<path d="M328.046 303.818V314H326.201V305.613H326.142L323.76 307.134V305.444L326.291 303.818H328.046ZM335.693 314.139C334.954 314.139 334.298 314.015 333.724 313.766C333.154 313.518 332.707 313.178 332.382 312.747C332.061 312.313 331.902 311.821 331.905 311.271C331.902 310.843 331.994 310.45 332.183 310.092C332.372 309.734 332.627 309.436 332.949 309.197C333.274 308.955 333.635 308.801 334.033 308.735V308.665C333.509 308.549 333.085 308.283 332.76 307.865C332.438 307.444 332.279 306.959 332.283 306.408C332.279 305.885 332.425 305.417 332.72 305.006C333.015 304.595 333.42 304.272 333.933 304.037C334.447 303.798 335.034 303.679 335.693 303.679C336.346 303.679 336.928 303.798 337.438 304.037C337.952 304.272 338.356 304.595 338.651 305.006C338.95 305.417 339.099 305.885 339.099 306.408C339.099 306.959 338.935 307.444 338.607 307.865C338.282 308.283 337.862 308.549 337.349 308.665V308.735C337.746 308.801 338.104 308.955 338.423 309.197C338.744 309.436 338.999 309.734 339.188 310.092C339.38 310.45 339.477 310.843 339.477 311.271C339.477 311.821 339.314 312.313 338.989 312.747C338.665 313.178 338.217 313.518 337.647 313.766C337.08 314.015 336.429 314.139 335.693 314.139ZM335.693 312.717C336.074 312.717 336.406 312.653 336.688 312.523C336.969 312.391 337.188 312.205 337.344 311.967C337.5 311.728 337.579 311.453 337.582 311.141C337.579 310.817 337.495 310.53 337.329 310.281C337.166 310.029 336.943 309.832 336.658 309.69C336.376 309.547 336.054 309.476 335.693 309.476C335.329 309.476 335.004 309.547 334.719 309.69C334.434 309.832 334.208 310.029 334.043 310.281C333.88 310.53 333.801 310.817 333.804 311.141C333.801 311.453 333.877 311.728 334.033 311.967C334.188 312.202 334.407 312.386 334.689 312.518C334.974 312.651 335.309 312.717 335.693 312.717ZM335.693 308.079C336.005 308.079 336.28 308.016 336.518 307.89C336.76 307.764 336.951 307.588 337.09 307.363C337.229 307.138 337.301 306.877 337.304 306.582C337.301 306.291 337.231 306.036 337.095 305.817C336.959 305.595 336.77 305.424 336.528 305.305C336.286 305.182 336.008 305.121 335.693 305.121C335.372 305.121 335.088 305.182 334.843 305.305C334.601 305.424 334.412 305.595 334.276 305.817C334.144 306.036 334.079 306.291 334.082 306.582C334.079 306.877 334.145 307.138 334.281 307.363C334.42 307.585 334.611 307.761 334.853 307.89C335.098 308.016 335.378 308.079 335.693 308.079Z" fill="#1C1C1C"/>
<rect x="362.5" y="277.5" width="63" height="63" stroke="#D5D4DF"/>
<path d="M390.842 303.818V314H389.609V305.111H389.549L387.063 306.761V305.509L389.609 303.818H390.842ZM398.455 303.679C398.872 303.682 399.29 303.762 399.707 303.918C400.125 304.073 400.506 304.332 400.851 304.693C401.196 305.051 401.472 305.54 401.681 306.16C401.89 306.78 401.994 307.557 401.994 308.491C401.994 309.396 401.908 310.2 401.736 310.903C401.567 311.602 401.321 312.192 401 312.673C400.682 313.153 400.294 313.518 399.837 313.766C399.383 314.015 398.869 314.139 398.295 314.139C397.725 314.139 397.217 314.027 396.769 313.801C396.325 313.572 395.96 313.256 395.675 312.852C395.394 312.444 395.213 311.972 395.134 311.435H396.347C396.456 311.902 396.673 312.288 396.998 312.593C397.326 312.895 397.759 313.045 398.295 313.045C399.081 313.045 399.701 312.702 400.155 312.016C400.612 311.33 400.841 310.361 400.841 309.108H400.761C400.576 309.386 400.355 309.627 400.1 309.829C399.845 310.031 399.562 310.187 399.25 310.296C398.938 310.406 398.607 310.46 398.256 310.46C397.672 310.46 397.137 310.316 396.65 310.028C396.166 309.736 395.778 309.337 395.487 308.83C395.198 308.319 395.054 307.736 395.054 307.08C395.054 306.456 395.193 305.886 395.472 305.369C395.753 304.849 396.148 304.435 396.655 304.126C397.165 303.818 397.765 303.669 398.455 303.679ZM398.455 304.773C398.037 304.773 397.661 304.877 397.326 305.086C396.995 305.291 396.731 305.57 396.536 305.921C396.343 306.269 396.247 306.655 396.247 307.08C396.247 307.504 396.34 307.89 396.526 308.238C396.714 308.583 396.971 308.858 397.296 309.063C397.624 309.265 397.997 309.366 398.415 309.366C398.73 309.366 399.023 309.305 399.295 309.183C399.567 309.057 399.804 308.886 400.006 308.67C400.211 308.452 400.372 308.205 400.488 307.93C400.604 307.651 400.662 307.361 400.662 307.06C400.662 306.662 400.566 306.289 400.374 305.941C400.185 305.593 399.923 305.311 399.588 305.096C399.257 304.88 398.879 304.773 398.455 304.773Z" fill="black"/>
<rect x="425.5" y="277.5" width="63" height="63" stroke="#D5D4DF"/>
<path d="M449.288 314V313.105L452.649 309.426C453.043 308.995 453.368 308.621 453.623 308.303C453.878 307.981 454.067 307.679 454.19 307.398C454.316 307.113 454.379 306.814 454.379 306.503C454.379 306.145 454.293 305.835 454.12 305.573C453.951 305.311 453.719 305.109 453.424 304.967C453.129 304.824 452.798 304.753 452.43 304.753C452.039 304.753 451.697 304.834 451.406 304.996C451.117 305.156 450.894 305.379 450.735 305.668C450.579 305.956 450.501 306.294 450.501 306.682H449.328C449.328 306.085 449.465 305.562 449.74 305.111C450.015 304.66 450.39 304.309 450.864 304.057C451.341 303.805 451.876 303.679 452.47 303.679C453.066 303.679 453.595 303.805 454.056 304.057C454.516 304.309 454.878 304.648 455.139 305.076C455.401 305.504 455.532 305.979 455.532 306.503C455.532 306.877 455.464 307.244 455.328 307.602C455.196 307.956 454.964 308.352 454.632 308.79C454.304 309.224 453.848 309.754 453.265 310.381L450.978 312.827V312.906H455.711V314H449.288ZM461.534 314.139C460.785 314.139 460.147 313.935 459.62 313.528C459.093 313.117 458.69 312.522 458.412 311.743C458.134 310.961 457.994 310.016 457.994 308.909C457.994 307.809 458.134 306.869 458.412 306.09C458.694 305.308 459.098 304.711 459.625 304.3C460.155 303.886 460.792 303.679 461.534 303.679C462.277 303.679 462.911 303.886 463.438 304.3C463.969 304.711 464.373 305.308 464.651 306.09C464.933 306.869 465.074 307.809 465.074 308.909C465.074 310.016 464.935 310.961 464.656 311.743C464.378 312.522 463.975 313.117 463.448 313.528C462.921 313.935 462.283 314.139 461.534 314.139ZM461.534 313.045C462.277 313.045 462.853 312.687 463.264 311.972C463.675 311.256 463.881 310.235 463.881 308.909C463.881 308.027 463.786 307.277 463.597 306.657C463.412 306.037 463.143 305.565 462.792 305.24C462.444 304.915 462.025 304.753 461.534 304.753C460.798 304.753 460.223 305.116 459.809 305.842C459.395 306.564 459.188 307.587 459.188 308.909C459.188 309.791 459.28 310.54 459.466 311.156C459.652 311.773 459.918 312.242 460.266 312.563C460.618 312.885 461.04 313.045 461.534 313.045Z" fill="black"/>
<rect x="488.5" y="277.5" width="63" height="63" stroke="#D5D4DF"/>
<path d="M512.288 314V313.105L515.649 309.426C516.043 308.995 516.368 308.621 516.623 308.303C516.878 307.981 517.067 307.679 517.19 307.398C517.316 307.113 517.379 306.814 517.379 306.503C517.379 306.145 517.293 305.835 517.12 305.573C516.951 305.311 516.719 305.109 516.424 304.967C516.129 304.824 515.798 304.753 515.43 304.753C515.039 304.753 514.697 304.834 514.406 304.996C514.117 305.156 513.894 305.379 513.735 305.668C513.579 305.956 513.501 306.294 513.501 306.682H512.328C512.328 306.085 512.465 305.562 512.74 305.111C513.015 304.66 513.39 304.309 513.864 304.057C514.341 303.805 514.876 303.679 515.47 303.679C516.066 303.679 516.595 303.805 517.056 304.057C517.516 304.309 517.878 304.648 518.139 305.076C518.401 305.504 518.532 305.979 518.532 306.503C518.532 306.877 518.464 307.244 518.328 307.602C518.196 307.956 517.964 308.352 517.632 308.79C517.304 309.224 516.848 309.754 516.265 310.381L513.978 312.827V312.906H518.711V314H512.288ZM525.906 303.818V314H524.673V305.111H524.614L522.128 306.761V305.509L524.673 303.818H525.906Z" fill="black"/>
<rect x="110.5" y="340.5" width="63" height="63" stroke="#D5D4DF"/>
<path d="M134.288 377V376.105L137.649 372.426C138.043 371.995 138.368 371.621 138.623 371.303C138.878 370.981 139.067 370.679 139.19 370.398C139.316 370.113 139.379 369.814 139.379 369.503C139.379 369.145 139.293 368.835 139.12 368.573C138.951 368.311 138.719 368.109 138.424 367.967C138.129 367.824 137.798 367.753 137.43 367.753C137.039 367.753 136.697 367.834 136.406 367.996C136.117 368.156 135.894 368.379 135.735 368.668C135.579 368.956 135.501 369.294 135.501 369.682H134.328C134.328 369.085 134.465 368.562 134.74 368.111C135.015 367.66 135.39 367.309 135.864 367.057C136.341 366.805 136.876 366.679 137.47 366.679C138.066 366.679 138.595 366.805 139.056 367.057C139.516 367.309 139.878 367.648 140.139 368.076C140.401 368.504 140.532 368.979 140.532 369.503C140.532 369.877 140.464 370.244 140.328 370.602C140.196 370.956 139.964 371.352 139.632 371.79C139.304 372.224 138.848 372.754 138.265 373.381L135.978 375.827V375.906H140.711V377H134.288ZM143.352 377V376.105L146.713 372.426C147.107 371.995 147.432 371.621 147.688 371.303C147.943 370.981 148.132 370.679 148.254 370.398C148.38 370.113 148.443 369.814 148.443 369.503C148.443 369.145 148.357 368.835 148.185 368.573C148.016 368.311 147.784 368.109 147.489 367.967C147.194 367.824 146.862 367.753 146.494 367.753C146.103 367.753 145.762 367.834 145.47 367.996C145.182 368.156 144.958 368.379 144.799 368.668C144.643 368.956 144.565 369.294 144.565 369.682H143.392C143.392 369.085 143.53 368.562 143.805 368.111C144.08 367.66 144.454 367.309 144.928 367.057C145.406 366.805 145.941 366.679 146.534 366.679C147.131 366.679 147.659 366.805 148.12 367.057C148.581 367.309 148.942 367.648 149.204 368.076C149.466 368.504 149.597 368.979 149.597 369.503C149.597 369.877 149.529 370.244 149.393 370.602C149.26 370.956 149.028 371.352 148.697 371.79C148.369 372.224 147.913 372.754 147.33 373.381L145.043 375.827V375.906H149.776V377H143.352Z" fill="black"/>
<rect x="173.5" y="340.5" width="63" height="63" stroke="#D5D4DF"/>
<path d="M197.288 377V376.105L200.649 372.426C201.043 371.995 201.368 371.621 201.623 371.303C201.878 370.981 202.067 370.679 202.19 370.398C202.316 370.113 202.379 369.814 202.379 369.503C202.379 369.145 202.293 368.835 202.12 368.573C201.951 368.311 201.719 368.109 201.424 367.967C201.129 367.824 200.798 367.753 200.43 367.753C200.039 367.753 199.697 367.834 199.406 367.996C199.117 368.156 198.894 368.379 198.735 368.668C198.579 368.956 198.501 369.294 198.501 369.682H197.328C197.328 369.085 197.465 368.562 197.74 368.111C198.015 367.66 198.39 367.309 198.864 367.057C199.341 366.805 199.876 366.679 200.47 366.679C201.066 366.679 201.595 366.805 202.056 367.057C202.516 367.309 202.878 367.648 203.139 368.076C203.401 368.504 203.532 368.979 203.532 369.503C203.532 369.877 203.464 370.244 203.328 370.602C203.196 370.956 202.964 371.352 202.632 371.79C202.304 372.224 201.848 372.754 201.265 373.381L198.978 375.827V375.906H203.711V377H197.288ZM209.574 377.139C208.918 377.139 208.333 377.027 207.819 376.801C207.308 376.576 206.902 376.263 206.601 375.862C206.303 375.457 206.14 374.988 206.114 374.455H207.366C207.393 374.783 207.506 375.066 207.705 375.305C207.903 375.54 208.164 375.722 208.485 375.852C208.807 375.981 209.163 376.045 209.554 376.045C209.991 376.045 210.379 375.969 210.717 375.817C211.055 375.664 211.321 375.452 211.513 375.18C211.705 374.909 211.801 374.594 211.801 374.236C211.801 373.861 211.708 373.531 211.523 373.246C211.337 372.958 211.065 372.733 210.707 372.57C210.349 372.408 209.912 372.327 209.395 372.327H208.58V371.233H209.395C209.799 371.233 210.154 371.16 210.459 371.014C210.767 370.868 211.007 370.663 211.18 370.398C211.355 370.133 211.443 369.821 211.443 369.463C211.443 369.118 211.367 368.818 211.214 368.563C211.062 368.308 210.847 368.109 210.568 367.967C210.293 367.824 209.968 367.753 209.594 367.753C209.242 367.753 208.911 367.817 208.599 367.947C208.291 368.073 208.039 368.257 207.844 368.499C207.648 368.737 207.542 369.026 207.526 369.364H206.332C206.352 368.83 206.513 368.363 206.815 367.962C207.116 367.557 207.511 367.242 207.998 367.017C208.488 366.792 209.027 366.679 209.614 366.679C210.243 366.679 210.784 366.807 211.234 367.062C211.685 367.314 212.031 367.647 212.273 368.061C212.515 368.475 212.636 368.923 212.636 369.403C212.636 369.977 212.486 370.466 212.184 370.87C211.886 371.274 211.48 371.554 210.966 371.71V371.79C211.609 371.896 212.111 372.169 212.472 372.61C212.834 373.048 213.014 373.589 213.014 374.236C213.014 374.789 212.863 375.286 212.562 375.727C212.263 376.165 211.856 376.509 211.339 376.761C210.822 377.013 210.233 377.139 209.574 377.139Z" fill="black"/>
<rect x="236.5" y="340.5" width="63" height="63" stroke="#D5D4DF"/>
<path d="M260.288 377V376.105L263.649 372.426C264.043 371.995 264.368 371.621 264.623 371.303C264.878 370.981 265.067 370.679 265.19 370.398C265.316 370.113 265.379 369.814 265.379 369.503C265.379 369.145 265.293 368.835 265.12 368.573C264.951 368.311 264.719 368.109 264.424 367.967C264.129 367.824 263.798 367.753 263.43 367.753C263.039 367.753 262.697 367.834 262.406 367.996C262.117 368.156 261.894 368.379 261.735 368.668C261.579 368.956 261.501 369.294 261.501 369.682H260.328C260.328 369.085 260.465 368.562 260.74 368.111C261.015 367.66 261.39 367.309 261.864 367.057C262.341 366.805 262.876 366.679 263.47 366.679C264.066 366.679 264.595 366.805 265.056 367.057C265.516 367.309 265.878 367.648 266.139 368.076C266.401 368.504 266.532 368.979 266.532 369.503C266.532 369.877 266.464 370.244 266.328 370.602C266.196 370.956 265.964 371.352 265.632 371.79C265.304 372.224 264.848 372.754 264.265 373.381L261.978 375.827V375.906H266.711V377H260.288ZM268.815 374.912V373.898L273.29 366.818H274.026V368.389H273.528L270.148 373.739V373.818H276.173V374.912H268.815ZM273.608 377V374.604V374.131V366.818H274.781V377H273.608Z" fill="black"/>
<rect x="299.5" y="340.5" width="63" height="63" stroke="#D5D4DF"/>
<path d="M323.288 377V376.105L326.649 372.426C327.043 371.995 327.368 371.621 327.623 371.303C327.878 370.981 328.067 370.679 328.19 370.398C328.316 370.113 328.379 369.814 328.379 369.503C328.379 369.145 328.293 368.835 328.12 368.573C327.951 368.311 327.719 368.109 327.424 367.967C327.129 367.824 326.798 367.753 326.43 367.753C326.039 367.753 325.697 367.834 325.406 367.996C325.117 368.156 324.894 368.379 324.735 368.668C324.579 368.956 324.501 369.294 324.501 369.682H323.328C323.328 369.085 323.465 368.562 323.74 368.111C324.015 367.66 324.39 367.309 324.864 367.057C325.341 366.805 325.876 366.679 326.47 366.679C327.066 366.679 327.595 366.805 328.056 367.057C328.516 367.309 328.878 367.648 329.139 368.076C329.401 368.504 329.532 368.979 329.532 369.503C329.532 369.877 329.464 370.244 329.328 370.602C329.196 370.956 328.964 371.352 328.632 371.79C328.304 372.224 327.848 372.754 327.265 373.381L324.978 375.827V375.906H329.711V377H323.288ZM335.494 377.139C334.911 377.139 334.386 377.023 333.918 376.791C333.451 376.559 333.076 376.241 332.795 375.837C332.513 375.432 332.359 374.972 332.332 374.455H333.526C333.572 374.915 333.781 375.296 334.152 375.598C334.527 375.896 334.974 376.045 335.494 376.045C335.912 376.045 336.283 375.948 336.608 375.752C336.936 375.557 337.193 375.288 337.379 374.947C337.567 374.602 337.662 374.213 337.662 373.778C337.662 373.334 337.564 372.938 337.369 372.59C337.176 372.239 336.911 371.962 336.573 371.76C336.235 371.558 335.849 371.455 335.415 371.452C335.103 371.448 334.783 371.496 334.455 371.596C334.127 371.692 333.857 371.816 333.645 371.969L332.491 371.83L333.108 366.818H338.398V367.912H334.142L333.784 370.915H333.844C334.053 370.749 334.314 370.612 334.629 370.502C334.944 370.393 335.272 370.338 335.614 370.338C336.237 370.338 336.792 370.487 337.279 370.786C337.77 371.08 338.154 371.485 338.433 371.999C338.714 372.512 338.855 373.099 338.855 373.759C338.855 374.408 338.709 374.988 338.418 375.499C338.129 376.006 337.732 376.407 337.224 376.702C336.717 376.993 336.141 377.139 335.494 377.139Z" fill="black"/>
<rect x="362.5" y="340.5" width="63" height="63" stroke="#D5D4DF"/>
<path d="M386.288 377V376.105L389.649 372.426C390.043 371.995 390.368 371.621 390.623 371.303C390.878 370.981 391.067 370.679 391.19 370.398C391.316 370.113 391.379 369.814 391.379 369.503C391.379 369.145 391.293 368.835 391.12 368.573C390.951 368.311 390.719 368.109 390.424 367.967C390.129 367.824 389.798 367.753 389.43 367.753C389.039 367.753 388.697 367.834 388.406 367.996C388.117 368.156 387.894 368.379 387.735 368.668C387.579 368.956 387.501 369.294 387.501 369.682H386.328C386.328 369.085 386.465 368.562 386.74 368.111C387.015 367.66 387.39 367.309 387.864 367.057C388.341 366.805 388.876 366.679 389.47 366.679C390.066 366.679 390.595 366.805 391.056 367.057C391.516 367.309 391.878 367.648 392.139 368.076C392.401 368.504 392.532 368.979 392.532 369.503C392.532 369.877 392.464 370.244 392.328 370.602C392.196 370.956 391.964 371.352 391.632 371.79C391.304 372.224 390.848 372.754 390.265 373.381L387.978 375.827V375.906H392.711V377H386.288ZM398.594 377.139C398.176 377.133 397.759 377.053 397.341 376.901C396.923 376.748 396.542 376.491 396.197 376.13C395.853 375.765 395.576 375.273 395.367 374.653C395.158 374.03 395.054 373.248 395.054 372.307C395.054 371.405 395.138 370.607 395.308 369.911C395.477 369.211 395.722 368.623 396.043 368.146C396.365 367.665 396.753 367.3 397.207 367.052C397.664 366.803 398.179 366.679 398.753 366.679C399.323 366.679 399.83 366.793 400.274 367.022C400.722 367.247 401.086 367.562 401.368 367.967C401.65 368.371 401.832 368.837 401.915 369.364H400.702C400.589 368.906 400.37 368.527 400.045 368.225C399.721 367.924 399.29 367.773 398.753 367.773C397.964 367.773 397.343 368.116 396.888 368.802C396.438 369.488 396.211 370.451 396.207 371.69H396.287C396.473 371.409 396.693 371.168 396.948 370.969C397.207 370.767 397.492 370.612 397.803 370.502C398.115 370.393 398.445 370.338 398.793 370.338C399.376 370.338 399.91 370.484 400.393 370.776C400.877 371.064 401.265 371.463 401.557 371.974C401.848 372.481 401.994 373.062 401.994 373.719C401.994 374.348 401.853 374.925 401.572 375.449C401.29 375.969 400.894 376.384 400.384 376.692C399.876 376.997 399.28 377.146 398.594 377.139ZM398.594 376.045C399.011 376.045 399.386 375.941 399.717 375.732C400.052 375.523 400.316 375.243 400.508 374.892C400.703 374.541 400.801 374.15 400.801 373.719C400.801 373.298 400.707 372.915 400.518 372.57C400.332 372.222 400.075 371.946 399.747 371.74C399.422 371.535 399.051 371.432 398.634 371.432C398.319 371.432 398.025 371.495 397.754 371.621C397.482 371.743 397.243 371.912 397.038 372.128C396.835 372.343 396.676 372.59 396.56 372.869C396.444 373.144 396.386 373.434 396.386 373.739C396.386 374.143 396.481 374.521 396.67 374.872C396.862 375.223 397.124 375.507 397.455 375.722C397.79 375.938 398.17 376.045 398.594 376.045Z" fill="black"/>
<rect x="425.5" y="340.5" width="63" height="63" stroke="#D5D4DF"/>
<path d="M449.288 377V376.105L452.649 372.426C453.043 371.995 453.368 371.621 453.623 371.303C453.878 370.981 454.067 370.679 454.19 370.398C454.316 370.113 454.379 369.814 454.379 369.503C454.379 369.145 454.293 368.835 454.12 368.573C453.951 368.311 453.719 368.109 453.424 367.967C453.129 367.824 452.798 367.753 452.43 367.753C452.039 367.753 451.697 367.834 451.406 367.996C451.117 368.156 450.894 368.379 450.735 368.668C450.579 368.956 450.501 369.294 450.501 369.682H449.328C449.328 369.085 449.465 368.562 449.74 368.111C450.015 367.66 450.39 367.309 450.864 367.057C451.341 366.805 451.876 366.679 452.47 366.679C453.066 366.679 453.595 366.805 454.056 367.057C454.516 367.309 454.878 367.648 455.139 368.076C455.401 368.504 455.532 368.979 455.532 369.503C455.532 369.877 455.464 370.244 455.328 370.602C455.196 370.956 454.964 371.352 454.632 371.79C454.304 372.224 453.848 372.754 453.265 373.381L450.978 375.827V375.906H455.711V377H449.288ZM458.909 377L463.463 367.991V367.912H458.213V366.818H464.736V367.972L460.202 377H458.909Z" fill="black"/>
<rect x="488.5" y="340.5" width="63" height="63" stroke="#D5D4DF"/>
<path d="M512.288 377V376.105L515.649 372.426C516.043 371.995 516.368 371.621 516.623 371.303C516.878 370.981 517.067 370.679 517.19 370.398C517.316 370.113 517.379 369.814 517.379 369.503C517.379 369.145 517.293 368.835 517.12 368.573C516.951 368.311 516.719 368.109 516.424 367.967C516.129 367.824 515.798 367.753 515.43 367.753C515.039 367.753 514.697 367.834 514.406 367.996C514.117 368.156 513.894 368.379 513.735 368.668C513.579 368.956 513.501 369.294 513.501 369.682H512.328C512.328 369.085 512.465 368.562 512.74 368.111C513.015 367.66 513.39 367.309 513.864 367.057C514.341 366.805 514.876 366.679 515.47 366.679C516.066 366.679 516.595 366.805 517.056 367.057C517.516 367.309 517.878 367.648 518.139 368.076C518.401 368.504 518.532 368.979 518.532 369.503C518.532 369.877 518.464 370.244 518.328 370.602C518.196 370.956 517.964 371.352 517.632 371.79C517.304 372.224 516.848 372.754 516.265 373.381L513.978 375.827V375.906H518.711V377H512.288ZM524.534 377.139C523.851 377.139 523.248 377.018 522.724 376.776C522.204 376.531 521.798 376.195 521.506 375.767C521.215 375.336 521.071 374.846 521.074 374.295C521.071 373.865 521.155 373.467 521.327 373.102C521.5 372.734 521.735 372.428 522.033 372.183C522.335 371.934 522.671 371.777 523.043 371.71V371.651C522.555 371.525 522.168 371.251 521.879 370.83C521.591 370.406 521.448 369.924 521.452 369.384C521.448 368.866 521.579 368.404 521.844 367.996C522.11 367.589 522.474 367.267 522.938 367.032C523.406 366.797 523.938 366.679 524.534 366.679C525.124 366.679 525.651 366.797 526.115 367.032C526.579 367.267 526.944 367.589 527.209 367.996C527.477 368.404 527.613 368.866 527.616 369.384C527.613 369.924 527.466 370.406 527.174 370.83C526.886 371.251 526.503 371.525 526.026 371.651V371.71C526.393 371.777 526.725 371.934 527.02 372.183C527.315 372.428 527.55 372.734 527.726 373.102C527.902 373.467 527.991 373.865 527.994 374.295C527.991 374.846 527.842 375.336 527.547 375.767C527.255 376.195 526.849 376.531 526.329 376.776C525.812 377.018 525.214 377.139 524.534 377.139ZM524.534 376.045C524.995 376.045 525.393 375.971 525.727 375.822C526.062 375.673 526.321 375.462 526.503 375.19C526.685 374.919 526.778 374.6 526.781 374.236C526.778 373.851 526.679 373.512 526.483 373.217C526.287 372.922 526.021 372.69 525.683 372.521C525.348 372.352 524.965 372.267 524.534 372.267C524.1 372.267 523.712 372.352 523.371 372.521C523.033 372.69 522.766 372.922 522.57 373.217C522.378 373.512 522.284 373.851 522.287 374.236C522.284 374.6 522.371 374.919 522.55 375.19C522.733 375.462 522.993 375.673 523.331 375.822C523.669 375.971 524.07 376.045 524.534 376.045ZM524.534 371.213C524.899 371.213 525.222 371.14 525.504 370.994C525.789 370.848 526.012 370.645 526.175 370.383C526.337 370.121 526.42 369.814 526.423 369.463C526.42 369.118 526.339 368.818 526.18 368.563C526.021 368.305 525.8 368.106 525.518 367.967C525.237 367.824 524.909 367.753 524.534 367.753C524.153 367.753 523.82 367.824 523.535 367.967C523.25 368.106 523.029 368.305 522.874 368.563C522.718 368.818 522.642 369.118 522.645 369.463C522.642 369.814 522.719 370.121 522.879 370.383C523.041 370.645 523.265 370.848 523.55 370.994C523.835 371.14 524.163 371.213 524.534 371.213Z" fill="black"/>
<rect x="110.5" y="403.5" width="63" height="63" stroke="#D5D4DF"/>
<path d="M134.288 440V439.105L137.649 435.426C138.043 434.995 138.368 434.621 138.623 434.303C138.878 433.981 139.067 433.679 139.19 433.398C139.316 433.113 139.379 432.814 139.379 432.503C139.379 432.145 139.293 431.835 139.12 431.573C138.951 431.311 138.719 431.109 138.424 430.967C138.129 430.824 137.798 430.753 137.43 430.753C137.039 430.753 136.697 430.834 136.406 430.996C136.117 431.156 135.894 431.379 135.735 431.668C135.579 431.956 135.501 432.294 135.501 432.682H134.328C134.328 432.085 134.465 431.562 134.74 431.111C135.015 430.66 135.39 430.309 135.864 430.057C136.341 429.805 136.876 429.679 137.47 429.679C138.066 429.679 138.595 429.805 139.056 430.057C139.516 430.309 139.878 430.648 140.139 431.076C140.401 431.504 140.532 431.979 140.532 432.503C140.532 432.877 140.464 433.244 140.328 433.602C140.196 433.956 139.964 434.352 139.632 434.79C139.304 435.224 138.848 435.754 138.265 436.381L135.978 438.827V438.906H140.711V440H134.288ZM146.455 429.679C146.872 429.682 147.29 429.762 147.707 429.918C148.125 430.073 148.506 430.332 148.851 430.693C149.196 431.051 149.472 431.54 149.681 432.16C149.89 432.78 149.994 433.557 149.994 434.491C149.994 435.396 149.908 436.2 149.736 436.903C149.567 437.602 149.321 438.192 149 438.673C148.682 439.153 148.294 439.518 147.837 439.766C147.383 440.015 146.869 440.139 146.295 440.139C145.725 440.139 145.217 440.027 144.769 439.801C144.325 439.572 143.96 439.256 143.675 438.852C143.394 438.444 143.213 437.972 143.134 437.435H144.347C144.456 437.902 144.673 438.288 144.998 438.593C145.326 438.895 145.759 439.045 146.295 439.045C147.081 439.045 147.701 438.702 148.155 438.016C148.612 437.33 148.841 436.361 148.841 435.108H148.761C148.576 435.386 148.355 435.627 148.1 435.829C147.845 436.031 147.562 436.187 147.25 436.296C146.938 436.406 146.607 436.46 146.256 436.46C145.672 436.46 145.137 436.316 144.65 436.028C144.166 435.736 143.778 435.337 143.487 434.83C143.198 434.319 143.054 433.736 143.054 433.08C143.054 432.456 143.193 431.886 143.472 431.369C143.753 430.849 144.148 430.435 144.655 430.126C145.165 429.818 145.765 429.669 146.455 429.679ZM146.455 430.773C146.037 430.773 145.661 430.877 145.326 431.086C144.995 431.291 144.731 431.57 144.536 431.921C144.343 432.269 144.247 432.655 144.247 433.08C144.247 433.504 144.34 433.89 144.526 434.238C144.714 434.583 144.971 434.858 145.296 435.063C145.624 435.265 145.997 435.366 146.415 435.366C146.73 435.366 147.023 435.305 147.295 435.183C147.567 435.057 147.804 434.886 148.006 434.67C148.211 434.452 148.372 434.205 148.488 433.93C148.604 433.651 148.662 433.361 148.662 433.06C148.662 432.662 148.566 432.289 148.374 431.941C148.185 431.593 147.923 431.311 147.588 431.096C147.257 430.88 146.879 430.773 146.455 430.773Z" fill="black"/>
<rect x="173.5" y="403.5" width="63" height="63" stroke="#D5D4DF"/>
<path d="M200.509 440.139C199.853 440.139 199.268 440.027 198.754 439.801C198.244 439.576 197.838 439.263 197.536 438.862C197.238 438.457 197.076 437.988 197.049 437.455H198.302C198.329 437.783 198.441 438.066 198.64 438.305C198.839 438.54 199.099 438.722 199.421 438.852C199.742 438.981 200.098 439.045 200.49 439.045C200.927 439.045 201.315 438.969 201.653 438.817C201.991 438.664 202.256 438.452 202.448 438.18C202.641 437.909 202.737 437.594 202.737 437.236C202.737 436.861 202.644 436.531 202.458 436.246C202.273 435.958 202.001 435.733 201.643 435.57C201.285 435.408 200.847 435.327 200.33 435.327H199.515V434.233H200.33C200.735 434.233 201.089 434.16 201.394 434.014C201.703 433.868 201.943 433.663 202.115 433.398C202.291 433.133 202.379 432.821 202.379 432.463C202.379 432.118 202.302 431.818 202.15 431.563C201.998 431.308 201.782 431.109 201.504 430.967C201.229 430.824 200.904 430.753 200.529 430.753C200.178 430.753 199.847 430.817 199.535 430.947C199.227 431.073 198.975 431.257 198.779 431.499C198.584 431.737 198.478 432.026 198.461 432.364H197.268C197.288 431.83 197.449 431.363 197.75 430.962C198.052 430.557 198.446 430.242 198.933 430.017C199.424 429.792 199.963 429.679 200.549 429.679C201.179 429.679 201.719 429.807 202.17 430.062C202.621 430.314 202.967 430.647 203.209 431.061C203.451 431.475 203.572 431.923 203.572 432.403C203.572 432.977 203.421 433.466 203.119 433.87C202.821 434.274 202.415 434.554 201.901 434.71V434.79C202.544 434.896 203.047 435.169 203.408 435.61C203.769 436.048 203.95 436.589 203.95 437.236C203.95 437.789 203.799 438.286 203.497 438.727C203.199 439.165 202.791 439.509 202.274 439.761C201.757 440.013 201.169 440.139 200.509 440.139ZM209.534 440.139C208.785 440.139 208.147 439.935 207.62 439.528C207.093 439.117 206.69 438.522 206.412 437.743C206.134 436.961 205.994 436.016 205.994 434.909C205.994 433.809 206.134 432.869 206.412 432.09C206.694 431.308 207.098 430.711 207.625 430.3C208.155 429.886 208.792 429.679 209.534 429.679C210.277 429.679 210.911 429.886 211.438 430.3C211.969 430.711 212.373 431.308 212.651 432.09C212.933 432.869 213.074 433.809 213.074 434.909C213.074 436.016 212.935 436.961 212.656 437.743C212.378 438.522 211.975 439.117 211.448 439.528C210.921 439.935 210.283 440.139 209.534 440.139ZM209.534 439.045C210.277 439.045 210.853 438.687 211.264 437.972C211.675 437.256 211.881 436.235 211.881 434.909C211.881 434.027 211.786 433.277 211.597 432.657C211.412 432.037 211.143 431.565 210.792 431.24C210.444 430.915 210.025 430.753 209.534 430.753C208.798 430.753 208.223 431.116 207.809 431.842C207.395 432.564 207.188 433.587 207.188 434.909C207.188 435.791 207.28 436.54 207.466 437.156C207.652 437.773 207.918 438.242 208.266 438.563C208.618 438.885 209.04 439.045 209.534 439.045Z" fill="black"/>
<rect x="236.5" y="403.5" width="63" height="63" stroke="#D5D4DF"/>
<path d="M263.509 440.139C262.853 440.139 262.268 440.027 261.754 439.801C261.244 439.576 260.838 439.263 260.536 438.862C260.238 438.457 260.076 437.988 260.049 437.455H261.302C261.329 437.783 261.441 438.066 261.64 438.305C261.839 438.54 262.099 438.722 262.421 438.852C262.742 438.981 263.098 439.045 263.49 439.045C263.927 439.045 264.315 438.969 264.653 438.817C264.991 438.664 265.256 438.452 265.448 438.18C265.641 437.909 265.737 437.594 265.737 437.236C265.737 436.861 265.644 436.531 265.458 436.246C265.273 435.958 265.001 435.733 264.643 435.57C264.285 435.408 263.847 435.327 263.33 435.327H262.515V434.233H263.33C263.735 434.233 264.089 434.16 264.394 434.014C264.703 433.868 264.943 433.663 265.115 433.398C265.291 433.133 265.379 432.821 265.379 432.463C265.379 432.118 265.302 431.818 265.15 431.563C264.998 431.308 264.782 431.109 264.504 430.967C264.229 430.824 263.904 430.753 263.529 430.753C263.178 430.753 262.847 430.817 262.535 430.947C262.227 431.073 261.975 431.257 261.779 431.499C261.584 431.737 261.478 432.026 261.461 432.364H260.268C260.288 431.83 260.449 431.363 260.75 430.962C261.052 430.557 261.446 430.242 261.933 430.017C262.424 429.792 262.963 429.679 263.549 429.679C264.179 429.679 264.719 429.807 265.17 430.062C265.621 430.314 265.967 430.647 266.209 431.061C266.451 431.475 266.572 431.923 266.572 432.403C266.572 432.977 266.421 433.466 266.119 433.87C265.821 434.274 265.415 434.554 264.901 434.71V434.79C265.544 434.896 266.047 435.169 266.408 435.61C266.769 436.048 266.95 436.589 266.95 437.236C266.95 437.789 266.799 438.286 266.497 438.727C266.199 439.165 265.791 439.509 265.274 439.761C264.757 440.013 264.169 440.139 263.509 440.139ZM273.906 429.818V440H272.673V431.111H272.614L270.128 432.761V431.509L272.673 429.818H273.906Z" fill="black"/>
<rect x="299.5" y="403.5" width="63" height="63" fill="#F2F3F7"/>
<rect x="299.5" y="403.5" width="63" height="63" stroke="#D5D4DF"/>
<path d="M332.374 429.818V440H331.141V431.111H331.081L328.596 432.761V431.509L331.141 429.818H332.374Z" fill="#A8A8A8"/>
<rect x="362.5" y="403.5" width="63" height="63" fill="#F2F3F7"/>
<rect x="362.5" y="403.5" width="63" height="63" stroke="#D5D4DF"/>
<path d="M390.82 440V439.105L394.181 435.426C394.575 434.995 394.9 434.621 395.155 434.303C395.41 433.981 395.599 433.679 395.722 433.398C395.848 433.113 395.911 432.814 395.911 432.503C395.911 432.145 395.825 431.835 395.652 431.573C395.483 431.311 395.251 431.109 394.956 430.967C394.661 430.824 394.33 430.753 393.962 430.753C393.571 430.753 393.23 430.834 392.938 430.996C392.65 431.156 392.426 431.379 392.267 431.668C392.111 431.956 392.033 432.294 392.033 432.682H390.86C390.86 432.085 390.997 431.562 391.272 431.111C391.548 430.66 391.922 430.309 392.396 430.057C392.873 429.805 393.409 429.679 394.002 429.679C394.598 429.679 395.127 429.805 395.588 430.057C396.049 430.309 396.41 430.648 396.672 431.076C396.933 431.504 397.064 431.979 397.064 432.503C397.064 432.877 396.996 433.244 396.861 433.602C396.728 433.956 396.496 434.352 396.165 434.79C395.836 435.224 395.381 435.754 394.797 436.381L392.51 438.827V438.906H397.243V440H390.82Z" fill="#A8A8A8"/>
<rect x="425.5" y="403.5" width="63" height="63" fill="#F2F3F7"/>
<rect x="425.5" y="403.5" width="63" height="63" stroke="#D5D4DF"/>
<path d="M457.042 440.139C456.385 440.139 455.8 440.027 455.287 439.801C454.776 439.576 454.37 439.263 454.069 438.862C453.77 438.457 453.608 437.988 453.581 437.455H454.834C454.861 437.783 454.973 438.066 455.172 438.305C455.371 438.54 455.631 438.722 455.953 438.852C456.274 438.981 456.631 439.045 457.022 439.045C457.459 439.045 457.847 438.969 458.185 438.817C458.523 438.664 458.788 438.452 458.981 438.18C459.173 437.909 459.269 437.594 459.269 437.236C459.269 436.861 459.176 436.531 458.991 436.246C458.805 435.958 458.533 435.733 458.175 435.57C457.817 435.408 457.38 435.327 456.863 435.327H456.047V434.233H456.863C457.267 434.233 457.622 434.16 457.927 434.014C458.235 433.868 458.475 433.663 458.647 433.398C458.823 433.133 458.911 432.821 458.911 432.463C458.911 432.118 458.835 431.818 458.682 431.563C458.53 431.308 458.314 431.109 458.036 430.967C457.761 430.824 457.436 430.753 457.062 430.753C456.71 430.753 456.379 430.817 456.067 430.947C455.759 431.073 455.507 431.257 455.312 431.499C455.116 431.737 455.01 432.026 454.993 432.364H453.8C453.82 431.83 453.981 431.363 454.282 430.962C454.584 430.557 454.978 430.242 455.466 430.017C455.956 429.792 456.495 429.679 457.081 429.679C457.711 429.679 458.251 429.807 458.702 430.062C459.153 430.314 459.499 430.647 459.741 431.061C459.983 431.475 460.104 431.923 460.104 432.403C460.104 432.977 459.953 433.466 459.652 433.87C459.353 434.274 458.947 434.554 458.434 434.71V434.79C459.077 434.896 459.579 435.169 459.94 435.61C460.301 436.048 460.482 436.589 460.482 437.236C460.482 437.789 460.331 438.286 460.03 438.727C459.731 439.165 459.324 439.509 458.807 439.761C458.29 440.013 457.701 440.139 457.042 440.139Z" fill="#A8A8A8"/>
<rect x="488.5" y="403.5" width="63" height="63" fill="#F2F3F7"/>
<rect x="488.5" y="403.5" width="63" height="63" stroke="#D5D4DF"/>
<path d="M516.283 437.912V436.898L520.758 429.818H521.493V431.389H520.996L517.616 436.739V436.818H523.641V437.912H516.283ZM521.076 440V437.604V437.131V429.818H522.249V440H521.076Z" fill="#A8A8A8"/>
</g>
</g>
<defs>
<filter id="filter0_dddddd_512_476" x="0" y="0" width="662" height="677" filterUnits="userSpaceOnUse" color-interpolation-filters="sRGB">
<feFlood flood-opacity="0" result="BackgroundImageFix"/>
<feColorMatrix in="SourceAlpha" type="matrix" values="0 0 0 0 0 0 0 0 0 0 0 0 0 0 0 0 0 0 127 0" result="hardAlpha"/>
<feOffset dy="2.76726"/>
<feGaussianBlur stdDeviation="1.1069"/>
<feColorMatrix type="matrix" values="0 0 0 0 0 0 0 0 0 0 0 0 0 0 0 0 0 0 0.0196802 0"/>
<feBlend mode="normal" in2="BackgroundImageFix" result="effect1_dropShadow_512_476"/>
<feColorMatrix in="SourceAlpha" type="matrix" values="0 0 0 0 0 0 0 0 0 0 0 0 0 0 0 0 0 0 127 0" result="hardAlpha"/>
<feOffset dy="6.6501"/>
<feGaussianBlur stdDeviation="2.66004"/>
<feColorMatrix type="matrix" values="0 0 0 0 0 0 0 0 0 0 0 0 0 0 0 0 0 0 0.0282725 0"/>
<feBlend mode="normal" in2="effect1_dropShadow_512_476" result="effect2_dropShadow_512_476"/>
<feColorMatrix in="SourceAlpha" type="matrix" values="0 0 0 0 0 0 0 0 0 0 0 0 0 0 0 0 0 0 127 0" result="hardAlpha"/>
<feOffset dy="12.5216"/>
<feGaussianBlur stdDeviation="5.00862"/>
<feColorMatrix type="matrix" values="0 0 0 0 0 0 0 0 0 0 0 0 0 0 0 0 0 0 0.035 0"/>
<feBlend mode="normal" in2="effect2_dropShadow_512_476" result="effect3_dropShadow_512_476"/>
<feColorMatrix in="SourceAlpha" type="matrix" values="0 0 0 0 0 0 0 0 0 0 0 0 0 0 0 0 0 0 127 0" result="hardAlpha"/>
<feOffset dy="22.3363"/>
<feGaussianBlur stdDeviation="8.93452"/>
<feColorMatrix type="matrix" values="0 0 0 0 0 0 0 0 0 0 0 0 0 0 0 0 0 0 0.0417275 0"/>
<feBlend mode="normal" in2="effect3_dropShadow_512_476" result="effect4_dropShadow_512_476"/>
<feColorMatrix in="SourceAlpha" type="matrix" values="0 0 0 0 0 0 0 0 0 0 0 0 0 0 0 0 0 0 127 0" result="hardAlpha"/>
<feOffset dy="41.7776"/>
<feGaussianBlur stdDeviation="16.711"/>
<feColorMatrix type="matrix" values="0 0 0 0 0 0 0 0 0 0 0 0 0 0 0 0 0 0 0.0503198 0"/>
<feBlend mode="normal" in2="effect4_dropShadow_512_476" result="effect5_dropShadow_512_476"/>
<feColorMatrix in="SourceAlpha" type="matrix" values="0 0 0 0 0 0 0 0 0 0 0 0 0 0 0 0 0 0 127 0" result="hardAlpha"/>
<feOffset dy="100"/>
<feGaussianBlur stdDeviation="40"/>
<feColorMatrix type="matrix" values="0 0 0 0 0 0 0 0 0 0 0 0 0 0 0 0 0 0 0.07 0"/>
<feBlend mode="normal" in2="effect5_dropShadow_512_476" result="effect6_dropShadow_512_476"/>
<feBlend mode="normal" in="SourceGraphic" in2="effect6_dropShadow_512_476" result="shape"/>
</filter>
<clipPath id="clip0_512_476">
<rect width="442" height="379" fill="white" transform="translate(110 88)"/>
</clipPath>
</defs>
</svg>
